<svg version="1.1" id="Layer_1" xmlns="http://www.w3.org/2000/svg" xmlns:xlink="http://www.w3.org/1999/xlink" x="0px" y="0px" width="17.988px" height="16.966px" viewBox="0 0 1024 1024" enable-background="new 0 0 17.988 16.966" xml:space="preserve">
  <path fill="#FF4040" d="M1024 405.7v453.7q0 37.7-27 64.6t-64.4 27H91.4q-37.7 0-64.5-27T0 859.4V405.7q25 28 57.7 49.7 207 140.6 284 197.2 32.6 24 53 37.4t54 27.4 62.7 14h1.2q29 0 62.8-14t54-27.4 53-37.4q97-70.3 284.5-197.2 32.4-22.3 57-49.7zm0-168q0 45.2-28 86.3t-69.7 70.3Q711.3 543.3 659 580q-6 4-24.4 17.4t-31 21.7-29.6 18.7-33 15.4-28.4 5.3h-1.2q-13 0-28.5-5.2t-33-15.3-29.7-18.6-31-21.6-24.2-17.4q-52-36.6-149.6-104.3t-117-81.4q-35.5-24-67-66T0 250.3q0-44.6 23.7-74.3t67.7-29.7h841.2q37 0 64.3 26.8t27 64.7z"></path>
</svg>
