<svg version="1.1" id="Layer_1" xmlns="http://www.w3.org/2000/svg" xmlns:xlink="http://www.w3.org/1999/xlink" x="0px" y="0px" width="20.988px" height="22.966px" viewBox="0 0 1024 1024" enable-background="new 0 0 20.988 22.966" xml:space="preserve">
  <path fill="#000000" d="M764 0H260c-28.4 0-51.4 23-51.4 51.4v921.2c0 28.4 23 51.4 51.3 51.4h504c28.4 0 51.4-23 51.4-51.4V51.4C815.4 23 792.4 0 764 0zm13.5 972.6c0 7.5-6 13.5-13.4 13.5H260c-7.5 0-13.5-6-13.5-13.4v-176h531v176zm0-214h-531v-606h531v606zm0-644h-531V51.4c0-7.4 6-13.5 13.4-13.5h504c7.5 0 13.5 6 13.5 13.4v63.2zM455 872.3h114v38H455v-38z"></path>
</svg>
