<svg version="1.1" id="Layer_1" xmlns="http://www.w3.org/2000/svg" xmlns:xlink="http://www.w3.org/1999/xlink" x="0px" y="0px" width="17.988px" height="16.966px" viewBox="0 0 1024 1024" enable-background="new 0 0 17.988 16.966" xml:space="preserve">
  <path fill="#FF4040" d="M782 623.3q0-33.3-13-61t-32.3-45.6T688 484t-55-22.7-58.3-15.3l-69.4-16q-20-4.7-29.3-7t-23.3-7.7-20-10.6-11-14-5-20q0-51.4 96-51.4 28.6 0 51.3 8t36 19 25.3 22.4T652 388t32 8q31.3 0 50.3-21.3t19-51.4q0-36.6-37.3-66.3t-94.7-45T500 196.7q-45.3 0-88 10.3t-79.7 31.3-59.3 58-22.3 85.7q0 40.7 12.6 71t37.4 50.3 53.3 32.4 68.7 21.6l97.3 24q60 14.7 74.7 24 21.3 13.4 21.3 40 0 26-26.7 43t-70 17q-34 0-61-10.6T415 669t-30.3-30-30.7-25.7-36-10.6q-33.3 0-50.3 20t-17 50q0 61.3 81.3 105t194 43.6q48.7 0 93.3-12.3t81.7-35.7 59-62.3 22-87.7zM1024 768q0 106-75 181t-181 75q-86.7 0-156-53.3-51.3 10.6-100 10.6-95.3 0-182.3-37t-150-100-100-150-37-182.3q0-48.7 10.6-100Q0 342.7 0 256 0 150 75 75T256 0q86.7 0 156 53.3 51.3-10.6 100-10.6 95.3 0 182.3 37t150 100 100 150 37 182.3q0 48.7-10.6 100 53.3 69.3 53.3 156z"></path></svg>
